<?xml version="1.0" encoding="UTF-8" standalone="no"?>
<!-- Created with Inkscape (http://www.inkscape.org/) -->

<svg
   xmlns:dc="http://purl.org/dc/elements/1.1/"
   xmlns:cc="http://creativecommons.org/ns#"
   xmlns:rdf="http://www.w3.org/1999/02/22-rdf-syntax-ns#"
   xmlns:svg="http://www.w3.org/2000/svg"
   xmlns="http://www.w3.org/2000/svg"
   xmlns:xlink="http://www.w3.org/1999/xlink"
   xmlns:sodipodi="http://sodipodi.sourceforge.net/DTD/sodipodi-0.dtd"
   xmlns:inkscape="http://www.inkscape.org/namespaces/inkscape"
   width="32"
   height="32"
   id="svg2"
   version="1.1"
   inkscape:version="0.48.2 r9819"
   sodipodi:docname="App.svg"
   inkscape:export-filename="L:\SpotDev\SpotDev\Resources\spotify_doc32x32.png"
   inkscape:export-xdpi="90"
   inkscape:export-ydpi="90">
  <defs
     id="defs4">
    <linearGradient
       id="linearGradient4195">
      <stop
         id="stop4197"
         offset="0"
         style="stop-color:#d86900;stop-opacity:1;" />
      <stop
         id="stop4199"
         offset="1"
         style="stop-color:#a12300;stop-opacity:1;" />
    </linearGradient>
    <linearGradient
       id="linearGradient4183">
      <stop
         style="stop-color:#ffc923;stop-opacity:1;"
         offset="0"
         id="stop4185" />
      <stop
         style="stop-color:#ff8523;stop-opacity:1;"
         offset="1"
         id="stop4187" />
    </linearGradient>
    <linearGradient
       id="linearGradient5073">
      <stop
         style="stop-color:#1396ff;stop-opacity:1;"
         offset="0"
         id="stop5075" />
      <stop
         style="stop-color:#1396ff;stop-opacity:0;"
         offset="1"
         id="stop5077" />
    </linearGradient>
    <linearGradient
       id="linearGradient4394">
      <stop
         style="stop-color:#ffd89f;stop-opacity:1;"
         offset="0"
         id="stop4396" />
      <stop
         id="stop4400"
         offset="0.5"
         style="stop-color:#ea9500;stop-opacity:1;" />
      <stop
         id="stop4398"
         offset="1"
         style="stop-color:#ffcf5e;stop-opacity:1;" />
    </linearGradient>
    <linearGradient
       id="linearGradient4200">
      <stop
         id="stop4202"
         offset="0"
         style="stop-color:#0071b8;stop-opacity:1;" />
      <stop
         style="stop-color:#002840;stop-opacity:1;"
         offset="1"
         id="stop4204" />
    </linearGradient>
    <linearGradient
       id="linearGradient4170">
      <stop
         style="stop-color:#44ff4e;stop-opacity:1;"
         offset="0"
         id="stop4172" />
      <stop
         id="stop4190"
         offset="0.5"
         style="stop-color:#249f1e;stop-opacity:1;" />
      <stop
         style="stop-color:#37ff10;stop-opacity:1;"
         offset="1"
         id="stop4174" />
    </linearGradient>
    <linearGradient
       id="linearGradient4158">
      <stop
         style="stop-color:#44b7ff;stop-opacity:1;"
         offset="0"
         id="stop4160" />
      <stop
         id="stop4166"
         offset="0.5"
         style="stop-color:#228dd0;stop-opacity:1;" />
      <stop
         style="stop-color:#5abfff;stop-opacity:1;"
         offset="1"
         id="stop4162" />
    </linearGradient>
    <linearGradient
       id="linearGradient4126">
      <stop
         style="stop-color:#abff07;stop-opacity:1;"
         offset="0"
         id="stop4128" />
      <stop
         id="stop4134"
         offset="0.5"
         style="stop-color:#7ab800;stop-opacity:1;" />
      <stop
         style="stop-color:#b2ff19;stop-opacity:1;"
         offset="1"
         id="stop4130" />
    </linearGradient>
    <linearGradient
       id="linearGradient4054">
      <stop
         style="stop-color:#7ab800;stop-opacity:1;"
         offset="0"
         id="stop4056" />
      <stop
         style="stop-color:#d7f800;stop-opacity:1;"
         offset="1"
         id="stop4058" />
    </linearGradient>
    <linearGradient
       id="linearGradient3894">
      <stop
         style="stop-color:#ffffff;stop-opacity:1;"
         offset="0"
         id="stop3896" />
      <stop
         id="stop3902"
         offset="0.5"
         style="stop-color:#dde5ea;stop-opacity:1;" />
      <stop
         style="stop-color:#ffffff;stop-opacity:1;"
         offset="1"
         id="stop3898" />
    </linearGradient>
    <clipPath
       id="clipPath3922"
       clipPathUnits="userSpaceOnUse">
      <path
         id="path3924"
         d="m 0,91.79 243.309,0 0,-91.79 L 0,0 0,91.79 z"
         inkscape:connector-curvature="0" />
    </clipPath>
    <clipPath
       clipPathUnits="userSpaceOnUse"
       id="clipPath4048">
      <rect
         style="fill:#ffffff;fill-opacity:1;stroke:none"
         id="rect4050"
         width="30.223122"
         height="39.547276"
         x="168.10405"
         y="-236.71611"
         transform="scale(1,-1)"
         ry="0" />
    </clipPath>
    <linearGradient
       inkscape:collect="always"
       xlink:href="#linearGradient4126"
       id="linearGradient4132"
       x1="262.87558"
       y1="-191.72949"
       x2="263.08597"
       y2="-181.69775"
       gradientUnits="userSpaceOnUse"
       gradientTransform="matrix(1.1908787,0,0,1.1908787,-45.905664,31.93757)" />
    <linearGradient
       inkscape:collect="always"
       xlink:href="#linearGradient4126"
       id="linearGradient4246"
       gradientUnits="userSpaceOnUse"
       gradientTransform="matrix(1.1908787,0,0,1.1908787,-45.905664,31.93757)"
       x1="262.87558"
       y1="-191.72949"
       x2="263.08597"
       y2="-181.69775" />
    <linearGradient
       inkscape:collect="always"
       xlink:href="#linearGradient4126"
       id="linearGradient4360"
       gradientUnits="userSpaceOnUse"
       gradientTransform="matrix(1.1908787,0,0,1.1908787,50.494796,38.856263)"
       x1="262.87558"
       y1="-191.72949"
       x2="263.08597"
       y2="-181.69775" />
    <linearGradient
       inkscape:collect="always"
       xlink:href="#linearGradient4126"
       id="linearGradient4380"
       gradientUnits="userSpaceOnUse"
       gradientTransform="matrix(1.1908787,0,0,1.1908787,-45.905664,31.93757)"
       x1="262.87558"
       y1="-191.72949"
       x2="263.08597"
       y2="-181.69775" />
    <linearGradient
       inkscape:collect="always"
       xlink:href="#linearGradient4394"
       id="linearGradient4392"
       x1="220.54759"
       y1="-214.95879"
       x2="263.08966"
       y2="-214.95879"
       gradientUnits="userSpaceOnUse"
       gradientTransform="matrix(0.65578733,0,0,0.65578733,60.954423,-70.235763)" />
    <linearGradient
       inkscape:collect="always"
       xlink:href="#linearGradient4126"
       id="linearGradient4406"
       gradientUnits="userSpaceOnUse"
       gradientTransform="matrix(1.1908787,0,0,1.1908787,-45.905664,31.93757)"
       x1="262.87558"
       y1="-191.72949"
       x2="263.08597"
       y2="-181.69775" />
    <linearGradient
       inkscape:collect="always"
       xlink:href="#linearGradient4126"
       id="linearGradient4502"
       gradientUnits="userSpaceOnUse"
       gradientTransform="matrix(1.1908787,0,0,1.1908787,-45.905664,31.93757)"
       x1="262.87558"
       y1="-191.72949"
       x2="263.08597"
       y2="-181.69775" />
    <linearGradient
       inkscape:collect="always"
       xlink:href="#linearGradient4394"
       id="linearGradient4510"
       gradientUnits="userSpaceOnUse"
       gradientTransform="matrix(0.65578733,0,0,0.65578733,60.954423,-70.235763)"
       x1="220.54759"
       y1="-214.95879"
       x2="263.08966"
       y2="-214.95879" />
    <linearGradient
       inkscape:collect="always"
       xlink:href="#linearGradient4054"
       id="linearGradient4559"
       gradientUnits="userSpaceOnUse"
       gradientTransform="matrix(1.1079552,0,0,1.1079552,16.81054,1019.7176)"
       x1="25.044643"
       y1="7.6026783"
       x2="23.920118"
       y2="3.4058943" />
    <linearGradient
       inkscape:collect="always"
       xlink:href="#linearGradient4126"
       id="linearGradient4602"
       gradientUnits="userSpaceOnUse"
       gradientTransform="matrix(1.1908787,0,0,1.1908787,-45.905664,31.93757)"
       x1="262.87558"
       y1="-191.72949"
       x2="263.08597"
       y2="-181.69775" />
    <linearGradient
       inkscape:collect="always"
       xlink:href="#linearGradient4126-0"
       id="linearGradient4602-4"
       gradientUnits="userSpaceOnUse"
       gradientTransform="matrix(1.1908787,0,0,1.1908787,-45.905664,31.93757)"
       x1="262.87558"
       y1="-191.72949"
       x2="263.08597"
       y2="-181.69775" />
    <linearGradient
       id="linearGradient4126-0">
      <stop
         style="stop-color:#abff07;stop-opacity:1;"
         offset="0"
         id="stop4128-5" />
      <stop
         id="stop4134-4"
         offset="0.5"
         style="stop-color:#7ab800;stop-opacity:1;" />
      <stop
         style="stop-color:#b2ff19;stop-opacity:1;"
         offset="1"
         id="stop4130-7" />
    </linearGradient>
    <linearGradient
       inkscape:collect="always"
       xlink:href="#linearGradient4126-0"
       id="linearGradient4648"
       gradientUnits="userSpaceOnUse"
       gradientTransform="matrix(1.1908787,0,0,1.1908787,-45.905664,31.93757)"
       x1="262.87558"
       y1="-191.72949"
       x2="263.08597"
       y2="-181.69775" />
    <linearGradient
       id="linearGradient4650">
      <stop
         style="stop-color:#abff07;stop-opacity:1;"
         offset="0"
         id="stop4652" />
      <stop
         id="stop4654"
         offset="0.5"
         style="stop-color:#7ab800;stop-opacity:1;" />
      <stop
         style="stop-color:#b2ff19;stop-opacity:1;"
         offset="1"
         id="stop4656" />
    </linearGradient>
    <linearGradient
       inkscape:collect="always"
       xlink:href="#linearGradient4394"
       id="linearGradient4717"
       gradientUnits="userSpaceOnUse"
       gradientTransform="matrix(0.65578733,0,0,0.65578733,217.77814,-55.014638)"
       x1="220.54759"
       y1="-214.95879"
       x2="263.08966"
       y2="-214.95879" />
    <linearGradient
       inkscape:collect="always"
       xlink:href="#linearGradient4394"
       id="linearGradient4725"
       x1="71.490906"
       y1="1047.5259"
       x2="92.025017"
       y2="1047.5259"
       gradientUnits="userSpaceOnUse"
       gradientTransform="translate(87.757003,37.249375)" />
    <radialGradient
       inkscape:collect="always"
       xlink:href="#linearGradient4158-3"
       id="radialGradient4590-0"
       gradientUnits="userSpaceOnUse"
       gradientTransform="matrix(-0.02419,1.2141153,-1.4176349,-0.0282449,46.782713,-34.561878)"
       cx="35.000015"
       cy="7.714292"
       fx="35.000015"
       fy="7.714292"
       r="6.6966004" />
    <linearGradient
       id="linearGradient4158-3">
      <stop
         style="stop-color:#44b7ff;stop-opacity:1;"
         offset="0"
         id="stop4160-5" />
      <stop
         id="stop4166-0"
         offset="0.5"
         style="stop-color:#228dd0;stop-opacity:1;" />
      <stop
         style="stop-color:#5abfff;stop-opacity:1;"
         offset="1"
         id="stop4162-7" />
    </linearGradient>
    <linearGradient
       inkscape:collect="always"
       xlink:href="#linearGradient4200-7"
       id="linearGradient4592-6"
       gradientUnits="userSpaceOnUse"
       x1="32.330547"
       y1="4.5841813"
       x2="32.330547"
       y2="13.071428" />
    <linearGradient
       id="linearGradient4200-7">
      <stop
         id="stop4202-8"
         offset="0"
         style="stop-color:#0071b8;stop-opacity:1;" />
      <stop
         style="stop-color:#002840;stop-opacity:1;"
         offset="1"
         id="stop4204-3" />
    </linearGradient>
    <radialGradient
       inkscape:collect="always"
       xlink:href="#linearGradient4158-3"
       id="radialGradient4594-6"
       gradientUnits="userSpaceOnUse"
       gradientTransform="matrix(-0.02419,1.2141153,-1.4176349,-0.0282449,46.782713,-34.561878)"
       cx="35.000015"
       cy="7.714292"
       fx="35.000015"
       fy="7.714292"
       r="6.6966004" />
    <linearGradient
       id="linearGradient4815">
      <stop
         style="stop-color:#44b7ff;stop-opacity:1;"
         offset="0"
         id="stop4817" />
      <stop
         id="stop4819"
         offset="0.5"
         style="stop-color:#228dd0;stop-opacity:1;" />
      <stop
         style="stop-color:#5abfff;stop-opacity:1;"
         offset="1"
         id="stop4821" />
    </linearGradient>
    <radialGradient
       inkscape:collect="always"
       xlink:href="#linearGradient4170-4"
       id="radialGradient4596-4"
       gradientUnits="userSpaceOnUse"
       gradientTransform="matrix(10.639948,0,0,-7.5233367,-157.92652,274.97538)"
       cx="36.360054"
       cy="6.4333973"
       fx="36.360054"
       fy="6.4333973"
       r="3.5953009" />
    <linearGradient
       id="linearGradient4170-4">
      <stop
         style="stop-color:#44ff4e;stop-opacity:1;"
         offset="0"
         id="stop4172-1" />
      <stop
         id="stop4190-9"
         offset="0.5"
         style="stop-color:#249f1e;stop-opacity:1;" />
      <stop
         style="stop-color:#37ff10;stop-opacity:1;"
         offset="1"
         id="stop4174-5" />
    </linearGradient>
    <radialGradient
       inkscape:collect="always"
       xlink:href="#linearGradient4170-4"
       id="radialGradient4598-5"
       gradientUnits="userSpaceOnUse"
       gradientTransform="matrix(20.261009,0,0,-26.738935,-492.64546,459.63185)"
       cx="35.425682"
       cy="8.5240355"
       fx="35.425682"
       fy="8.5240355"
       r="1.8139406" />
    <linearGradient
       id="linearGradient4829">
      <stop
         style="stop-color:#44ff4e;stop-opacity:1;"
         offset="0"
         id="stop4831" />
      <stop
         id="stop4833"
         offset="0.5"
         style="stop-color:#249f1e;stop-opacity:1;" />
      <stop
         style="stop-color:#37ff10;stop-opacity:1;"
         offset="1"
         id="stop4835" />
    </linearGradient>
    <radialGradient
       inkscape:collect="always"
       xlink:href="#linearGradient4170-4"
       id="radialGradient4600-7"
       gradientUnits="userSpaceOnUse"
       gradientTransform="matrix(20.261009,0,0,-26.738935,-504.00492,468.48338)"
       cx="35.425682"
       cy="8.5240355"
       fx="35.425682"
       fy="8.5240355"
       r="1.8139406" />
    <linearGradient
       id="linearGradient4838">
      <stop
         style="stop-color:#44ff4e;stop-opacity:1;"
         offset="0"
         id="stop4840" />
      <stop
         id="stop4842"
         offset="0.5"
         style="stop-color:#249f1e;stop-opacity:1;" />
      <stop
         style="stop-color:#37ff10;stop-opacity:1;"
         offset="1"
         id="stop4844" />
    </linearGradient>
    <radialGradient
       r="1.8139406"
       fy="8.5240355"
       fx="35.425682"
       cy="8.5240355"
       cx="35.425682"
       gradientTransform="matrix(20.261009,0,0,-26.738935,-504.00492,468.48338)"
       gradientUnits="userSpaceOnUse"
       id="radialGradient4852"
       xlink:href="#linearGradient4170-4"
       inkscape:collect="always" />
    <linearGradient
       inkscape:collect="always"
       xlink:href="#linearGradient4394"
       id="linearGradient4944"
       gradientUnits="userSpaceOnUse"
       gradientTransform="matrix(0.17952593,0,0,0.17952593,129.67336,1114.9571)"
       x1="220.54759"
       y1="-214.95879"
       x2="263.08966"
       y2="-214.95879" />
    <linearGradient
       gradientTransform="matrix(2.0778635,0,0,2.0778635,-518.08353,-281.80071)"
       gradientUnits="userSpaceOnUse"
       xlink:href="#linearGradient3013"
       id="linearGradient3019"
       y2="333.89423"
       x2="490.53049"
       y1="489.13965"
       x1="382.33768" />
    <linearGradient
       id="linearGradient3013">
      <stop
         offset="0"
         style="stop-color:#000000;stop-opacity:0.8263889"
         id="stop3015" />
      <stop
         offset="1"
         style="stop-color:#000000;stop-opacity:1"
         id="stop3017" />
    </linearGradient>
    <linearGradient
       inkscape:collect="always"
       xlink:href="#linearGradient3894"
       id="linearGradient4169"
       gradientUnits="userSpaceOnUse"
       gradientTransform="matrix(1.2149238,0,0,1.2113922,-4.9282015,1017.3013)"
       x1="7.4464288"
       y1="15.946428"
       x2="1.5773821"
       y2="26.639914" />
    <linearGradient
       inkscape:collect="always"
       xlink:href="#linearGradient3894"
       id="linearGradient4171"
       gradientUnits="userSpaceOnUse"
       gradientTransform="matrix(1.1251325,0,0,1.1230763,-3.4570667,1018.7791)"
       x1="7.4464288"
       y1="15.946428"
       x2="26.520985"
       y2="29.141546" />
    <linearGradient
       inkscape:collect="always"
       xlink:href="#linearGradient3013"
       id="linearGradient4173"
       gradientUnits="userSpaceOnUse"
       gradientTransform="matrix(2.0778635,0,0,2.0778635,-518.08353,-281.80071)"
       x1="382.33768"
       y1="489.13965"
       x2="490.53049"
       y2="333.89423" />
    <linearGradient
       inkscape:collect="always"
       xlink:href="#linearGradient4183"
       id="linearGradient4189"
       x1="16.875"
       y1="18.120802"
       x2="16.875"
       y2="28.004896"
       gradientUnits="userSpaceOnUse"
       gradientTransform="translate(4.125,1021.0587)" />
    <linearGradient
       inkscape:collect="always"
       xlink:href="#linearGradient4195"
       id="linearGradient4193"
       gradientUnits="userSpaceOnUse"
       x1="16.875"
       y1="18.120802"
       x2="16.875"
       y2="28.004896"
       gradientTransform="translate(4.125,1021.0587)" />
  </defs>
  <sodipodi:namedview
     id="base"
     pagecolor="#ffffff"
     bordercolor="#666666"
     borderopacity="1.0"
     inkscape:pageopacity="0.0"
     inkscape:pageshadow="2"
     inkscape:zoom="8"
     inkscape:cx="24.325543"
     inkscape:cy="15.588653"
     inkscape:document-units="px"
     inkscape:current-layer="layer1"
     showgrid="true"
     inkscape:window-width="1600"
     inkscape:window-height="838"
     inkscape:window-x="-8"
     inkscape:window-y="-8"
     inkscape:window-maximized="1"
     objecttolerance="1"
     gridtolerance="1"
     guidetolerance="1"
     showguides="true"
     inkscape:guide-bbox="true">
    <inkscape:grid
       type="xygrid"
       id="grid4062"
       empspacing="5"
       visible="true"
       enabled="true"
       snapvisiblegridlinesonly="true"
       spacingx="32px"
       spacingy="32px" />
    <sodipodi:guide
       orientation="-0.70710678,0.70710678"
       position="-106.31856,59.093924"
       id="guide4248" />
  </sodipodi:namedview>
  <metadata
     id="metadata7">
    <rdf:RDF>
      <cc:Work
         rdf:about="">
        <dc:format>image/svg+xml</dc:format>
        <dc:type
           rdf:resource="http://purl.org/dc/dcmitype/StillImage" />
        <dc:title></dc:title>
      </cc:Work>
    </rdf:RDF>
  </metadata>
  <g
     inkscape:label="Layer 1"
     inkscape:groupmode="layer"
     id="layer1"
     transform="translate(0,-1020.3622)">
    <g
       transform="matrix(0.4279567,0,0,-0.4279567,78.090096,1147.6551)"
       id="g3918">
      <g
         id="g3920"
         clip-path="url(#clipPath3922)">
        <g
           id="g3926"
           transform="translate(99.6895,47.6279)">
          <path
             inkscape:connector-curvature="0"
             d="m 0,0 c 0.136,4.299 1.207,7.701 2.893,9.958 1.697,2.253 3.922,3.434 6.781,3.446 0.098,0 0.205,-0.002 0.319,-0.005 3.037,-0.115 5.202,-1.254 6.76,-3.36 1.554,-2.107 2.449,-5.311 2.446,-9.494 0,-0.332 -0.004,-0.67 -0.014,-1.013 -0.353,-8.408 -4.122,-13.002 -9.733,-13.017 -0.114,-0.001 -0.227,0 -0.337,0.003 C 3.583,-13.283 0.06,-8.669 -0.013,-0.814 -0.017,-0.55 -0.008,-0.278 0,0 M 10.214,22.356 C 9.97,22.367 9.725,22.37 9.486,22.37 -1.964,22.401 -10.426,13.395 -10.783,0.965 c -0.011,-0.356 -0.018,-0.708 -0.018,-1.056 -0.064,-12.711 7.825,-22.008 19.478,-22.346 0.262,-0.002 0.515,-0.006 0.775,-0.006 0.03,-0.004 0.06,-0.004 0.088,-0.004 11.732,0 20.092,9.046 20.442,21.933 0.012,0.342 0.016,0.677 0.016,1.009 0.068,12.527 -7.948,21.532 -19.784,21.861"
             style="fill:#12100f;fill-opacity:1;fill-rule:nonzero;stroke:none"
             id="path3928" />
        </g>
        <g
           id="g3930"
           transform="translate(123.0635,73.1187)">
          <path
             inkscape:connector-curvature="0"
             d="M 0,0 C -5.919,3.616 -13.271,4.456 -21.836,2.502 -22.59,2.33 -23.06,1.583 -22.892,0.83 c 0.178,-0.755 0.924,-1.226 1.681,-1.052 7.831,1.784 14.479,1.057 19.751,-2.163 0.665,-0.407 1.523,-0.197 1.93,0.463 C 0.875,-1.262 0.666,-0.403 0,0"
             style="fill:#12100f;fill-opacity:1;fill-rule:nonzero;stroke:none"
             id="path3932" />
        </g>
        <g
           id="g3934"
           transform="translate(125.7002,79.7134)">
          <path
             inkscape:connector-curvature="0"
             d="m 0,0 c -6.934,4.258 -17.085,5.458 -25.254,2.983 -0.922,-0.282 -1.444,-1.253 -1.166,-2.181 0.278,-0.925 1.26,-1.447 2.19,-1.167 7.145,2.169 16.36,1.096 22.408,-2.617 0.815,-0.505 1.896,-0.247 2.406,0.577 C 1.088,-1.581 0.826,-0.505 0,0"
             style="fill:#12100f;fill-opacity:1;fill-rule:nonzero;stroke:none"
             id="path3936" />
        </g>
        <g
           id="g3938"
           transform="translate(128.6572,87.377)">
          <path
             inkscape:connector-curvature="0"
             d="m 0,0 c -8.33,4.942 -21.538,5.409 -29.476,3 -1.115,-0.336 -1.742,-1.507 -1.403,-2.613 0.337,-1.11 1.51,-1.745 2.623,-1.403 6.917,2.097 18.873,1.698 26.115,-2.598 0.995,-0.59 2.286,-0.261 2.878,0.737 C 1.328,-1.881 0.997,-0.591 0,0"
             style="fill:#12100f;fill-opacity:1;fill-rule:nonzero;stroke:none"
             id="path3940" />
        </g>
        <g
           id="g3942"
           transform="translate(177.4492,23.6299)">
          <path
             inkscape:connector-curvature="0"
             d="m 0,0 -1.588,0 c -0.816,0 -1.488,0.668 -1.488,1.479 l 0,31.316 c 0,0.809 -0.666,1.475 -1.48,1.475 l -12.066,0 c -0.819,0 -1.486,-0.666 -1.486,-1.475 l 0,-5.785 c 0,-0.814 0.667,-1.483 1.486,-1.483 l 1.812,0 c 0.817,0 1.485,-0.668 1.485,-1.482 l 0,-22.559 c 0,-0.813 -0.668,-1.478 -1.485,-1.478 l -1.887,0 c -0.815,0 -1.487,-0.672 -1.487,-1.488 l 0,-5.769 c 0,-0.814 0.672,-1.482 1.487,-1.482 l 16.697,0 c 0.811,0 1.49,0.668 1.49,1.482 l 0,5.764 C 1.49,-0.667 0.811,0 0,0"
             style="fill:#12100f;fill-opacity:1;fill-rule:nonzero;stroke:none"
             id="path3944" />
        </g>
        <g
           id="g3946"
           transform="translate(31.6768,43.8789)">
          <path
             inkscape:connector-curvature="0"
             d="m 0,0 -0.375,-1.087 0.364,1.09 c -3.015,1.012 -5.229,1.494 -10.033,2.021 -4.692,0.539 -6.4,0.962 -8.221,1.802 -2.03,0.935 -3.04,2.467 -3.054,4.264 0.004,1.706 0.871,3.224 2.503,4.415 1.625,1.176 3.996,1.942 6.751,1.94 3.388,0 6.737,-1.448 9.348,-4.124 C -2.217,9.79 -1.67,8.994 -1.273,8.349 -0.876,7.7 -0.633,7.222 -0.633,7.222 -0.532,7.03 -0.432,6.89 -0.339,6.764 0.49,5.496 1.829,5.265 2.554,5.274 l 3.711,0 0.073,0.004 c 0.015,0 0.056,0.004 0.089,0.007 l 0.974,0 c 0,0 1.486,0.096 1.486,1.484 l 0,0.923 c 0.004,0.071 0.014,0.142 0.011,0.213 l 0,12.349 c 0,0.04 -0.01,0.078 -0.011,0.121 l 0,1.027 c 0,0.814 -0.67,1.483 -1.486,1.483 l -6.069,0 c -0.817,0 -1.486,-0.669 -1.486,-1.483 l 0,-1.092 c 0,-0.02 -0.005,-0.037 -0.005,-0.056 l 0,-1.26 c -2.808,2.362 -6.847,4.962 -12.818,4.952 -5.227,10e-4 -9.836,-1.713 -13.153,-4.637 -3.316,-2.918 -5.319,-7.059 -5.315,-11.745 0,-4.176 1.64,-8.094 4.413,-11.033 1.84,-1.981 4.487,-3.052 6.12,-3.686 2.921,-1.133 5.849,-1.439 9.718,-1.82 2.613,-0.257 5.781,-0.595 8.14,-1.654 2.358,-1.113 3.836,-2.578 3.886,-5.767 -0.05,-4.601 -3.394,-7.474 -9.561,-7.569 -8.359,0.008 -11.967,6.307 -14.045,9.895 -0.24,0.393 -0.583,0.527 -0.99,0.527 l -2.649,-0.002 -3.802,0 c -1.424,0 -1.457,-1.151 -1.457,-1.414 0,-0.123 0,-4.24 -0.003,-8.684 l 0,-4.915 c 0,-3.442 -0.002,-6.186 -0.002,-6.186 0,-0.819 0.67,-1.483 1.491,-1.483 l 1.129,0 c 0.006,0 0.014,-0.003 0.021,-0.003 l 3.865,0 c 0.007,0 0.014,0.003 0.021,0.003 l 1.119,0 c 0.816,0 1.483,0.664 1.483,1.483 l 0,1.063 c 0.003,0.027 0.01,0.054 0.01,0.081 l 0,3.214 0,0.122 0,3.535 c 3.614,-3.709 8.019,-7.215 15.558,-7.195 5.284,-0.002 9.938,1.89 13.252,5.102 3.323,3.21 5.291,7.735 5.288,12.877 C 11.587,-11.087 9.149,-3.147 0,0"
             style="fill:#12100f;fill-opacity:1;fill-rule:nonzero;stroke:none"
             id="path3948" />
        </g>
        <g
           id="g3950"
           transform="translate(148.3301,49.1523)">
          <path
             inkscape:connector-curvature="0"
             d="m 0,0 5.063,0 c 0.041,0 0.082,0.01 0.125,0.012 l 1.016,0 c 0.819,0 1.485,0.669 1.485,1.483 l 0,1.04 c 0.003,0.031 0.014,0.062 0.014,0.097 l 0,3.481 c 0,0.033 -0.011,0.062 -0.014,0.095 l 0,1.064 c 0,0.81 -0.666,1.475 -1.485,1.475 l -7.611,0 0,10.415 c 0,0.819 -0.666,1.481 -1.486,1.481 l -7.213,0 c -0.817,0 -1.487,-0.662 -1.487,-1.481 l 0,-0.947 c -0.003,-0.069 -0.02,-0.134 -0.02,-0.203 l 0,-9.265 -5.487,0 c -0.463,0 -0.968,-0.45 -0.819,-1.086 0.15,-0.64 0.666,-2.483 0.881,-3.647 0.216,-1.166 0.326,-2.268 0.384,-2.849 0.208,-1.099 0.906,-1.153 1.269,-1.153 l 0.813,0 C -14.55,0.01 -14.539,0.001 -14.514,0 l 1.493,0 c 0.762,-0.035 1.369,-0.64 1.408,-1.395 l 0,-21.264 c -0.013,-4.061 1.261,-7.131 3.596,-9.07 2.327,-1.933 5.496,-2.683 9.098,-2.684 l 3.975,-0.013 c 0.323,0.001 0.63,0.067 0.916,0.173 l 0.213,0 c 0.818,0 1.489,0.669 1.489,1.485 l 0,0.745 c 0.006,0.077 0.022,0.15 0.022,0.23 l 0,3.642 c 0,0.078 -0.016,0.149 -0.022,0.226 l 0,0.927 c 0,0.811 -0.671,1.483 -1.489,1.483 l -4.362,0 c -1.175,0.079 -1.992,0.33 -2.43,0.718 -0.441,0.385 -0.791,1.011 -0.807,2.525 l 0,20.834 C -1.395,-0.66 -0.773,-0.035 0,0"
             style="fill:#12100f;fill-opacity:1;fill-rule:nonzero;stroke:none"
             id="path3952" />
        </g>
        <g
           id="g3954"
           transform="translate(164.1162,61.856)">
          <path
             inkscape:connector-curvature="0"
             d="m 0,0 c 0,-0.82 0.666,-1.481 1.485,-1.481 l 7.307,0 c 0.819,0 1.488,0.661 1.488,1.481 l 0,6.455 c 0,0.821 -0.664,1.483 -1.486,1.483 l -7.308,0 C 0.669,7.938 0,7.276 0,6.455 L 0,0 z"
             style="fill:#12100f;fill-opacity:1;fill-rule:nonzero;stroke:none"
             id="path3956" />
        </g>
        <g
           id="g3958"
           transform="translate(243.3086,55.2622)">
          <path
             inkscape:connector-curvature="0"
             d="m 0,0 c 0,0.021 -0.007,0.042 -0.007,0.065 l 0,1.107 c 0,0.816 -0.667,1.481 -1.489,1.481 l -14.734,0 c -0.811,0 -1.486,-0.665 -1.486,-1.481 l 0,-1.132 c 0,-0.015 -10e-4,-0.027 -10e-4,-0.04 l 0,-3.478 c 0,-0.014 10e-4,-0.028 10e-4,-0.039 l 0,-1.109 c 0,-0.815 0.675,-1.483 1.486,-1.483 l 0.78,-0.001 c 0.813,0 1.283,-0.633 1.037,-1.402 l -6.175,-19.476 -6.985,19.484 c -0.269,0.767 0.17,1.394 0.986,1.394 l 0.616,0.012 c 0.823,0 1.485,0.669 1.485,1.483 l 0,0.871 c 0.008,0.087 0.025,0.174 0.025,0.266 l 0,3.478 c 0,0.091 -0.017,0.176 -0.025,0.263 l 0,0.885 c 0,0.814 -0.662,1.48 -1.485,1.48 l -1.114,0 c -0.004,0 -0.007,0.003 -0.011,0.003 l -19.006,0 0,5.447 c 0,1.187 0.229,1.683 0.451,1.879 0.209,0.22 0.817,0.464 2.124,0.461 l 3.148,0 c 0.025,0 0.051,0.007 0.073,0.008 l 1.073,0 c 0.815,0 1.482,0.668 1.482,1.486 l 0,1.105 c 0,0.012 0.004,0.021 0.004,0.035 l 0,3.323 c 0,0.01 -0.004,0.021 -0.004,0.031 l 0,1.127 c 0,0.814 -0.667,1.486 -1.482,1.486 l -5.508,0 0.002,-0.013 -0.005,0 c -3.756,-0.005 -6.607,-0.559 -8.65,-2.014 -2.059,-1.464 -3.006,-3.853 -2.981,-6.711 l 0,-7.65 -3.743,0 c -0.005,0 -0.009,-0.003 -0.012,-0.003 l -1.121,0 c -0.817,0 -1.485,-0.666 -1.485,-1.48 l 0,-0.978 C -62.739,0.114 -62.753,0.057 -62.753,0 l 0,-3.478 c 0,-0.06 0.014,-0.114 0.017,-0.171 l 0,-0.966 c 0,-0.814 0.668,-1.483 1.485,-1.483 l 1.026,0 c 0.037,-0.002 0.071,-0.011 0.107,-0.011 l 2.314,0 c 0.787,-0.028 1.423,-0.671 1.429,-1.466 l 0,-22.575 c -0.006,-0.809 -0.672,-1.474 -1.481,-1.474 l -1.74,0 c -0.819,0 -1.487,-0.669 -1.487,-1.484 l 0,-5.773 c 0,-0.814 0.668,-1.482 1.487,-1.482 l 1.068,0 c 0.031,0 0.058,-0.008 0.088,-0.008 l 14.794,0 c 0.03,0 0.057,0.008 0.087,0.008 l 1.042,0 c 0.817,0 1.487,0.668 1.487,1.482 l 0,0.93 c 0.006,0.07 0.02,0.136 0.02,0.206 l 0,3.479 c 0,0.069 -0.014,0.138 -0.02,0.207 l 0,0.951 c 0,0.815 -0.67,1.484 -1.487,1.484 l -2.102,0 c -0.808,0 -1.461,0.65 -1.483,1.448 l 0,22.63 c 0.022,0.781 0.647,1.409 1.428,1.437 l 4.394,0 0.686,-0.001 c 0.82,0 1.724,-0.627 2.007,-1.386 l 12.286,-32.409 -0.799,-2.685 c -0.576,-1.814 -1.08,-2.73 -1.581,-3.106 -0.473,-0.391 -1.276,-0.603 -3.014,-0.598 l -0.002,0.007 -3.742,0 c -0.819,0 -1.484,-0.666 -1.484,-1.479 l 0,-0.984 c -0.004,-0.058 -0.017,-0.114 -0.017,-0.175 l 0,-3.708 c 0,-0.062 0.013,-0.115 0.017,-0.175 l 0,-0.948 c 0,-0.814 0.665,-1.481 1.484,-1.481 l 0.902,0 c 0.076,-0.008 0.15,-0.024 0.23,-0.024 0.002,0 1.464,-10e-4 2.736,-10e-4 0.634,0 1.22,0 1.55,10e-4 2.89,0.003 5.122,0.313 6.933,1.345 1.42,0.812 2.45,2.051 3.215,3.671 0.108,0.232 0.553,1.355 0.553,1.355 0.01,0.028 0.022,0.057 0.033,0.084 l 13.701,41.299 c 0.269,0.77 1.131,1.397 1.952,1.397 l 1.138,0.012 c 0.822,0 1.489,0.669 1.489,1.483 l 0,1.071 C -0.007,-3.523 0,-3.501 0,-3.478 L 0,0 z"
             style="fill:#12100f;fill-opacity:1;fill-rule:nonzero;stroke:none"
             id="path3960" />
        </g>
        <g
           id="g3962"
           transform="translate(74.6768,26.2451)">
          <path
             inkscape:connector-curvature="0"
             d="m 0,0 c -1.538,-2.188 -3.605,-3.271 -6.522,-3.292 -2.788,0.013 -4.971,1.228 -6.622,3.577 -1.386,1.993 -2.309,4.857 -2.558,8.4 l 0,3.579 c 0.557,6.97 4.39,11.315 9.482,11.325 2.728,-0.021 4.733,-1.136 6.25,-3.356 1.502,-2.225 2.4,-5.65 2.396,-10.047 C 2.43,5.63 1.528,2.193 0,0 m 8.68,26.126 c -3.052,4.033 -7.516,6.449 -12.693,6.438 -5.194,0.033 -8.795,-1.831 -11.689,-4.784 l 0,2.4 c 0,0.81 -0.666,1.474 -1.485,1.474 l -12.167,0 c -0.819,0 -1.487,-0.664 -1.487,-1.474 l 0,-5.784 c 0,-0.815 0.668,-1.483 1.487,-1.483 l 1.891,0 c 0.815,0 1.482,-0.666 1.482,-1.483 l 0,-37.242 c 0,-0.82 -0.667,-1.489 -1.482,-1.489 l -1.884,0 c -0.82,0 -1.486,-0.661 -1.486,-1.477 l 0,-5.993 c 0,-0.81 0.666,-1.483 1.486,-1.483 l 17.019,0 c 0.819,0 1.485,0.673 1.485,1.483 l 0,5.993 c 0,0.816 -0.666,1.477 -1.485,1.477 l -1.889,0 c -0.82,0 -1.485,0.669 -1.485,1.489 l 0,8.358 c 2.323,-2.39 5.794,-4.811 11.502,-4.811 l 0.106,0 c 5.115,-0.006 9.578,2.421 12.673,6.404 3.099,3.986 4.883,9.503 4.887,15.822 -0.004,6.524 -1.724,12.133 -4.786,16.165"
             style="fill:#12100f;fill-opacity:1;fill-rule:nonzero;stroke:none"
             id="path3964" />
        </g>
      </g>
    </g>
    <path
       style="fill:url(#linearGradient4559);fill-opacity:1;stroke:none"
       d="m 40.502976,1021.0927 0,6.1007 6.078637,0 z"
       id="path4104"
       inkscape:connector-curvature="0"
       sodipodi:nodetypes="cccc" />
    <text
       sodipodi:linespacing="125%"
       id="text4382"
       y="1079.5969"
       x="168.91994"
       style="font-size:12.48316574px;font-style:normal;font-weight:normal;line-height:125%;letter-spacing:0px;word-spacing:0px;fill:url(#linearGradient4944);fill-opacity:1;stroke:none;font-family:Sans"
       xml:space="preserve"><tspan
         style="font-weight:bold;fill:url(#linearGradient4944);fill-opacity:1;-inkscape-font-specification:Sans Bold"
         y="1079.5969"
         x="168.91994"
         id="tspan4384"
         sodipodi:role="line">({})</tspan></text>
    <text
       sodipodi:linespacing="125%"
       id="text4402-2"
       y="1085.8146"
       x="159.19824"
       style="font-size:2.90567684px;font-style:normal;font-weight:normal;line-height:125%;letter-spacing:0px;word-spacing:0px;fill:url(#linearGradient4725);fill-opacity:1;stroke:none;font-family:Sans"
       xml:space="preserve"><tspan
         style="font-weight:bold;fill:url(#linearGradient4725);fill-opacity:1;stroke:none;font-family:Arial Black;-inkscape-font-specification:Arial Black"
         y="1085.8146"
         x="159.19824"
         id="tspan4404-1"
         sodipodi:role="line">JAVASCRIPT</tspan></text>
    <path
       sodipodi:nodetypes="cccccc"
       inkscape:connector-curvature="0"
       id="path4931"
       d="m 117.14063,986.59066 12.43978,0.10284 -3.32041,9.93404 -3.53697,1.63703 -3.5947,-1.66374 z"
       style="fill:#7ab80f;fill-opacity:0.94117647;stroke:none" />
    <path
       style="fill:#e75f46;fill-opacity:1;stroke:none"
       d="m 10.605168,998.51571 12.439783,0.10284 -3.320419,9.93405 -3.536967,1.637 -3.594693,-1.6637 z"
       id="path4731"
       inkscape:connector-curvature="0"
       sodipodi:nodetypes="cccccc" />
    <g
       id="g4322"
       transform="matrix(0.42795668,0,0,-0.42795668,-37.325527,1105.3011)">
      <path
         sodipodi:open="true"
         sodipodi:end="10.930128"
         sodipodi:start="4.6565011"
         transform="matrix(2.6482344,0,0,-2.6482344,131.22332,244.93339)"
         d="m 37.572376,3.8854548 a 6.6964288,6.6964288 0 1 1 -0.06389,0.00388"
         sodipodi:ry="6.6964288"
         sodipodi:rx="6.6964288"
         sodipodi:cy="10.571428"
         sodipodi:cx="37.94643"
         id="path4324"
         style="fill:url(#radialGradient4590-0);fill-opacity:1;stroke:url(#linearGradient4592-6);stroke-width:0.88235581;stroke-opacity:1"
         sodipodi:type="arc" />
      <path
         sodipodi:type="arc"
         style="fill:url(#radialGradient4594-6);fill-opacity:1;stroke:#b4cee0;stroke-opacity:1"
         id="path4326"
         sodipodi:cx="37.94643"
         sodipodi:cy="10.571428"
         sodipodi:rx="6.6964288"
         sodipodi:ry="6.6964288"
         d="m 37.572376,3.8854548 a 6.6964288,6.6964288 0 1 1 -0.06389,0.00388"
         transform="matrix(2.336685,0,0,-2.336685,143.04551,241.63987)"
         sodipodi:start="4.6565011"
         sodipodi:end="10.930128"
         sodipodi:open="true" />
      <path
         sodipodi:nodetypes="csssscssssc"
         inkscape:connector-curvature="0"
         id="path4328"
         d="m 236.76585,230.86089 c 0,0 -3.83977,-1.87306 -5.05726,-2.90324 -1.21749,-1.03018 -0.93654,-2.62228 -1.03018,-3.37151 -0.0618,-0.4946 1.51362,2.05287 2.97117,3.15848 0.75037,0.56918 1.67599,-0.0698 1.89878,0.0257 0.65557,0.28096 -4.12074,-3.1842 -4.30803,-3.83977 -0.18732,-0.65557 0.46826,-3.83977 1.12382,-5.24457 0.65558,-1.40479 0.37462,-1.87306 3.46516,-2.80959 3.09056,-0.93653 7.21129,0.37461 8.24147,0.74922 1.03018,0.37462 2.15402,0.65558 2.15402,1.21749 0,0.56192 -0.46827,10.30183 -9.45895,13.01777 z"
         style="fill:url(#radialGradient4596-4);fill-opacity:1;stroke:none" />
      <path
         style="fill:url(#radialGradient4598-5);fill-opacity:1;stroke:none"
         d="m 233.47282,215.69195 c 0,0 1.38159,-0.24826 2.87117,-1.2413 1.48956,-0.99303 1.61369,-2.02939 1.86194,-3.27068 0.24825,-1.24131 0.43707,-0.88508 -1.67315,-2.49877 -2.11021,-1.61369 -2.27763,-2.89829 -2.5259,-5.13264 -0.24824,-2.23434 -1.90664,-0.27074 -3.0005,-0.68532 -2.24174,-0.84967 -1.11718,-1.24131 -1.61371,1.61369 -0.49651,2.85499 -1.11715,4.59283 -0.49651,5.58586 0.62066,0.99304 0.99304,1.6137 1.2413,2.73087 0.24827,1.11718 3.33536,2.89829 3.33536,2.89829 z"
         id="path4330"
         inkscape:connector-curvature="0"
         sodipodi:nodetypes="cscssssssc" />
      <path
         sodipodi:nodetypes="cscssssssc"
         inkscape:connector-curvature="0"
         id="path4332"
         d="m 222.11336,224.54348 c 0,0 1.38159,-0.24826 2.87117,-1.2413 1.48956,-0.99303 1.61369,-2.02939 1.86194,-3.27068 0.24825,-1.24131 0.43707,-0.88508 -1.67315,-2.49877 -2.11021,-1.61369 -2.27763,-2.89829 -2.5259,-5.13264 -0.24824,-2.23434 -1.90664,-0.27074 -3.0005,-0.68532 -2.24174,-0.84967 -1.11718,-1.24131 -1.61371,1.61369 -0.49651,2.85499 -1.11715,4.59283 -0.49651,5.58586 0.62066,0.99304 0.99304,1.6137 1.2413,2.73087 0.24827,1.11718 3.33536,2.89829 3.33536,2.89829 z"
         style="fill:url(#radialGradient4852);fill-opacity:1;stroke:none" />
    </g>
    <g
       id="g4127"
       transform="translate(3.375,-1.303471)">
      <path
         style="fill:url(#linearGradient4169);fill-opacity:1;stroke:#414b55;stroke-width:1px;stroke-linecap:butt;stroke-linejoin:miter;stroke-opacity:1"
         d="m 4.3812508,1027.1658 0,23 20.7437492,-3e-4 0,-23 c -8.656737,0 -10.395215,3e-4 -19.2562507,3e-4 -0.4751695,0 -0.9702991,0 -1.4874985,0 z"
         id="path4129"
         inkscape:connector-curvature="0"
         sodipodi:nodetypes="ccccsc" />
      <path
         sodipodi:nodetypes="ccccc"
         inkscape:connector-curvature="0"
         id="path4131"
         d="m 3.8751128,1022.6747 -2.237e-4,4 21.7499979,0 2.24e-4,-4 c -9.666286,0 -10.980401,0 -21.7499982,0 z"
         style="fill:#486079;fill-opacity:1;stroke:none" />
      <path
         style="fill:url(#linearGradient4171);fill-opacity:1;stroke:#fcfcfc;stroke-width:1px;stroke-linecap:butt;stroke-linejoin:miter;stroke-opacity:1"
         d="m 5.125,1028.091 0,21.0747 19.092791,0 0,-20.9253 c -7.446712,0 -10.400219,-0.1494 -19.092791,-0.1494 z"
         id="path4133"
         inkscape:connector-curvature="0"
         sodipodi:nodetypes="ccccc" />
      <g
         id="g4135"
         transform="matrix(0.55539313,0,0,-0.55539313,-86.913592,1158.9489)"
         style="opacity:0.36283186"
         clip-path="url(#clipPath4048)">
        <g
           style="fill:#7ab800;fill-opacity:1"
           id="g4137"
           transform="matrix(0.71526338,0,0,0.71526338,174.83171,189.93288)">
          <path
             inkscape:connector-curvature="0"
             d="m 0,0 c 0.136,4.299 1.207,7.701 2.893,9.958 1.697,2.253 3.922,3.434 6.781,3.446 0.098,0 0.205,-0.002 0.319,-0.005 3.037,-0.115 5.202,-1.254 6.76,-3.36 1.554,-2.107 2.449,-5.311 2.446,-9.494 0,-0.332 -0.004,-0.67 -0.014,-1.013 -0.353,-8.408 -4.122,-13.002 -9.733,-13.017 -0.114,-0.001 -0.227,0 -0.337,0.003 C 3.583,-13.283 0.06,-8.669 -0.013,-0.814 -0.017,-0.55 -0.008,-0.278 0,0 M 10.214,22.356 C 9.97,22.367 9.725,22.37 9.486,22.37 -1.964,22.401 -10.426,13.395 -10.783,0.965 c -0.011,-0.356 -0.018,-0.708 -0.018,-1.056 -0.064,-12.711 7.825,-22.008 19.478,-22.346 0.262,-0.002 0.515,-0.006 0.775,-0.006 0.03,-0.004 0.06,-0.004 0.088,-0.004 11.732,0 20.092,9.046 20.442,21.933 0.012,0.342 0.016,0.677 0.016,1.009 0.068,12.527 -7.948,21.532 -19.784,21.861"
             style="fill:#7ab800;fill-opacity:1;fill-rule:nonzero;stroke:none"
             id="path4139" />
        </g>
        <g
           style="fill:#7ab800;fill-opacity:1"
           id="g4141"
           transform="matrix(0.71526338,0,0,0.71526338,191.55028,208.16552)">
          <path
             inkscape:connector-curvature="0"
             d="M 0,0 C -5.919,3.616 -13.271,4.456 -21.836,2.502 -22.59,2.33 -23.06,1.583 -22.892,0.83 c 0.178,-0.755 0.924,-1.226 1.681,-1.052 7.831,1.784 14.479,1.057 19.751,-2.163 0.665,-0.407 1.523,-0.197 1.93,0.463 C 0.875,-1.262 0.666,-0.403 0,0"
             style="fill:#7ab800;fill-opacity:1;fill-rule:nonzero;stroke:none"
             id="path4143" />
        </g>
        <g
           style="fill:#7ab800;fill-opacity:1"
           id="g4145"
           transform="matrix(0.71526338,0,0,0.71526338,193.43621,212.88246)">
          <path
             inkscape:connector-curvature="0"
             d="m 0,0 c -6.934,4.258 -17.085,5.458 -25.254,2.983 -0.922,-0.282 -1.444,-1.253 -1.166,-2.181 0.278,-0.925 1.26,-1.447 2.19,-1.167 7.145,2.169 16.36,1.096 22.408,-2.617 0.815,-0.505 1.896,-0.247 2.406,0.577 C 1.088,-1.581 0.826,-0.505 0,0"
             style="fill:#7ab800;fill-opacity:1;fill-rule:nonzero;stroke:none"
             id="path4147" />
        </g>
        <g
           style="fill:#7ab800;fill-opacity:1"
           id="g4149"
           transform="matrix(0.71526338,0,0,0.71526338,195.55125,218.36396)">
          <path
             inkscape:connector-curvature="0"
             d="m 0,0 c -8.33,4.942 -21.538,5.409 -29.476,3 -1.115,-0.336 -1.742,-1.507 -1.403,-2.613 0.337,-1.11 1.51,-1.745 2.623,-1.403 6.917,2.097 18.873,1.698 26.115,-2.598 0.995,-0.59 2.286,-0.261 2.878,0.737 C 1.328,-1.881 0.997,-0.591 0,0"
             style="fill:#7ab800;fill-opacity:1;fill-rule:nonzero;stroke:none"
             id="path4151" />
        </g>
      </g>
      <g
         transform="matrix(1.4503019,0,0,1.4503019,-7.0014646,-471.54725)"
         id="g4153"
         style="opacity:0.61504421">
        <g
           style="opacity:0.92920353"
           transform="matrix(1.4702241,0,0,1.4702241,-6.5104257,-485.52516)"
           id="g4155">
          <path
             style="opacity:0.98999999;fill:#f15500;fill-opacity:1;stroke:none"
             d="m 10.253048,1041.1811 4.016485,2.3189 0,-4.5286 -3.968402,-1.0634 z"
             id="path4157"
             inkscape:connector-curvature="0" />
          <path
             style="opacity:0.98999999;fill:#00bbf1;fill-opacity:1;stroke:none"
             d="m 18.600562,1041.1369 -4.016485,2.3189 0,-4.5286 3.968402,-1.0634 z"
             id="path4159"
             inkscape:connector-curvature="0" />
          <path
             style="opacity:0.98999999;fill:#ecf100;fill-opacity:1;stroke:none"
             d="m 14.221449,1036.1279 0,2.4639 -3.924208,-1.0927 z"
             id="path4161"
             inkscape:connector-curvature="0"
             sodipodi:nodetypes="cccc" />
          <path
             sodipodi:nodetypes="cccc"
             inkscape:connector-curvature="0"
             id="path4163"
             d="m 14.62827,1036.1115 0,2.4361 3.880014,-1.0803 z"
             style="opacity:0.98999999;fill:#00f129;fill-opacity:1;stroke:none" />
        </g>
      </g>
      <g
         id="g4165"
         transform="matrix(0.0195009,0,0,0.0195009,11.306302,1030.4339)">
        <path
           style="fill:url(#linearGradient4173);fill-opacity:1;fill-rule:evenodd;stroke:#000000;stroke-width:5.92410803;stroke-linecap:round;stroke-linejoin:round"
           id="path4167"
           d="m 418.38768,231.34258 c 14.31979,21.13649 21.68218,46.72843 40.13541,64.98241 21.13477,27.83462 48.14623,50.89072 69.08885,79.05807 15.15655,19.68077 31.77102,40.59925 36.07436,65.35699 11.58719,31.7567 6.55595,67.40891 -5.80561,98.49818 -13.94701,16.76487 -23.48233,-4.93192 -19.58905,-18.3652 0.59324,-18.53529 0.32293,-37.0207 -6.78594,-54.52813 -6.30471,-26.25474 -17.83413,-51.10108 -37.13626,-70.36568 -16.77226,-14.70084 -35.81289,-47.09468 -61.38161,-35.94125 -16.88486,10.63667 -9.52893,32.13945 -11.34625,48.7119 -1.00349,101.95104 -1.0707,203.94409 -2.70053,305.8661 -1.24608,42.80949 -38.24711,71.52942 -72.88028,89.90822 -30.85392,18.56748 -67.79454,28.96551 -103.60859,20.69063 -33.3036,-3.41726 -67.75581,-27.72972 -68.4537,-63.70404 -2.22037,-41.7108 27.90419,-80.5523 64.98849,-97.02378 36.40406,-20.74876 82.42945,-25.24594 121.63079,-10.33095 19.1562,6.05494 24.48328,-11.72109 26.87355,-28.81947 2.21226,-129.76981 3.98291,-259.54448 4.43537,-389.3337 0.36593,-12.97349 21.49606,-16.13939 26.461,-4.6603 z"
           inkscape:connector-curvature="0" />
      </g>
    </g>
  </g>
</svg>
